<svg width="200" height="200" viewBox="0 0 100 100" xmlns="http://www.w3.org/2000/svg">
  <defs>
    <filter id="shadow" x="-20%" y="-20%" width="140%" height="140%">
      <feGaussianBlur in="SourceAlpha" stdDeviation="2"/>
      <feOffset dx="0" dy="2" result="offsetblur"/>
      <feFlood flood-color="rgba(0,0,0,0.2)"/>
      <feComposite in2="offsetblur" operator="in"/>
      <feMerge>
        <feMergeNode/>
        <feMergeNode in="SourceGraphic"/>
      </feMerge>
    </filter>
  </defs>

  <g filter="url(#shadow)">
    <animateTransform 
      attributeName="transform" 
      type="scale" 
      values="1; 1.05; 1" 
      dur="2s" 
      repeatCount="indefinite" 
      pivot="50,50" /> <circle cx="50" cy="50" r="48" fill="#f59e0b" stroke="#d97706" stroke-width="2"/>
    
    <circle cx="50" cy="50" r="42" fill="white" stroke="#fbbf24" stroke-width="1" stroke-dashedarray="3,3"/>

    <g transform="translate(25,20) scale(0.5)">
        <path d="M72.2,42.1c1.9-4.7,0.4-10-3.8-13c-4.2-3-10-2.8-14-1.3c-2.4-1.9-5.4-3.1-8.7-3.4c-0.2-2.7-1.1-5.3-2.6-7.5 C40.4,13.2,35.1,11,30,11.9c-5.1,0.9-9.1,5.1-10.1,10.1c-0.9,5.1,1.3,10.2,5.2,13c-1.5,4-1.7,9.8,1.3,14c3,4.2,8.3,5.7,13,3.8 c1.3,4,4.2,7.3,8,8.8c1,4.9,4.7,8.9,9.5,10.2c4.8,1.3,10,0.1,13.6-3.1C72.6,60.8,75,54.4,72.2,42.1z" fill="#78350f"/>
        <circle cx="35" cy="25" r="3" fill="white"/> </g>

    <path d="M15,70 L85,70 L90,85 L10,85 Z" fill="#b45309" stroke="#78350f" stroke-width="1"/>

    <text x="50" y="80" text-anchor="middle" fill="white" font-family="Arial, sans-serif" font-weight="bold" font-size="8px">
      MASTER OF FOCUS
    </text>
  </g>
</svg>