<svg width="300" height="300" viewBox="0 0 300 300" fill="none" xmlns="http://www.w3.org/2000/svg" class="mx-auto" data-fg-d3bl2="0.8:3.7754:/src/app/App.tsx:5:9:167:8891:e:svg:xtetxtetxtetxtetetetetxtetetetetxtetetetetetxtetetetetetxtetetetetetetetetxtetxtetxtetetetetxtetetetetxtetetetetxtetetxtetxtetetete" data-fgid-d3bl2=":r2:">
	<defs data-fg-d3bl4="0.8:3.7754:/src/app/App.tsx:14:11:401:1508:e:defs:etetete">
		<linearGradient id="grad1" x1="0%" y1="0%" x2="100%" y2="100%" data-fg-d3bl5="0.8:3.7754:/src/app/App.tsx:15:13:420:348:e:linearGradient:etete">
			<stop offset="0%" data-fg-d3bl6="0.8:3.7754:/src/app/App.tsx:16:15:498:69:e:stop" style="stop-color: rgb(30, 58, 95); stop-opacity: 1;"></stop>
			<stop offset="50%" data-fg-d3bl7="0.8:3.7754:/src/app/App.tsx:17:15:582:70:e:stop" style="stop-color: rgb(37, 99, 235); stop-opacity: 1;"></stop>
			<stop offset="100%" data-fg-d3bl8="0.8:3.7754:/src/app/App.tsx:18:15:667:71:e:stop" style="stop-color: rgb(6, 182, 212); stop-opacity: 1;"></stop>
		</linearGradient>
		<linearGradient id="grad2" x1="0%" y1="0%" x2="100%" y2="100%" data-fg-d3bl9="0.8:3.7754:/src/app/App.tsx:21:13:794:348:e:linearGradient:etete">
			<stop offset="0%" data-fg-d3bl10="0.8:3.7754:/src/app/App.tsx:22:15:872:69:e:stop" style="stop-color: rgb(12, 74, 110); stop-opacity: 1;"></stop>
			<stop offset="50%" data-fg-d3bl11="0.8:3.7754:/src/app/App.tsx:23:15:956:70:e:stop" style="stop-color: rgb(14, 165, 233); stop-opacity: 1;"></stop>
			<stop offset="100%" data-fg-d3bl12="0.8:3.7754:/src/app/App.tsx:24:15:1041:71:e:stop" style="stop-color: rgb(34, 211, 238); stop-opacity: 1;"></stop>
		</linearGradient>
		<linearGradient id="grad3" x1="50%" y1="0%" x2="50%" y2="100%" data-fg-d3bl13="0.8:3.7754:/src/app/App.tsx:27:13:1168:348:e:linearGradient:etete">
			<stop offset="0%" data-fg-d3bl14="0.8:3.7754:/src/app/App.tsx:28:15:1246:69:e:stop" style="stop-color: rgb(6, 182, 212); stop-opacity: 1;"></stop>
			<stop offset="70%" data-fg-d3bl15="0.8:3.7754:/src/app/App.tsx:29:15:1330:70:e:stop" style="stop-color: rgb(103, 232, 249); stop-opacity: 1;"></stop>
			<stop offset="100%" data-fg-d3bl16="0.8:3.7754:/src/app/App.tsx:30:15:1415:71:e:stop" style="stop-color: rgb(251, 191, 36); stop-opacity: 1;"></stop>
		</linearGradient>
		<linearGradient id="goldGrad" x1="0%" y1="0%" x2="100%" y2="0%" data-fg-d3bl17="0.8:3.7754:/src/app/App.tsx:33:13:1542:349:e:linearGradient:etete">
			<stop offset="0%" data-fg-d3bl18="0.8:3.7754:/src/app/App.tsx:34:15:1621:69:e:stop" style="stop-color: rgb(251, 191, 36); stop-opacity: 1;"></stop>
			<stop offset="50%" data-fg-d3bl19="0.8:3.7754:/src/app/App.tsx:35:15:1705:70:e:stop" style="stop-color: rgb(252, 211, 77); stop-opacity: 1;"></stop>
			<stop offset="100%" data-fg-d3bl20="0.8:3.7754:/src/app/App.tsx:36:15:1790:71:e:stop" style="stop-color: rgb(251, 191, 36); stop-opacity: 1;"></stop>
		</linearGradient>
	</defs>
	<path d="M 70 260 L 70 120 Q 70 40, 150 40 Q 230 40, 230 120 L 230 260" stroke="url(#grad1)" stroke-width="18" fill="none" stroke-linecap="round" data-fg-d3bl22="0.8:3.7754:/src/app/App.tsx:41:11:1974:216:e:path"></path>
	<path d="M 85 255 L 85 125 Q 85 60, 150 60 Q 215 60, 215 125 L 215 255" stroke="url(#grad2)" stroke-width="12" fill="none" stroke-linecap="round" data-fg-d3bl24="0.8:3.7754:/src/app/App.tsx:50:11:2257:216:e:path"></path>
	<path d="M 70 180 Q 50 170, 45 160 Q 40 150, 50 145" fill="none" data-fg-d3bl26="0.8:3.7754:/src/app/App.tsx:59:11:2555:196:e:path" stroke="url(#grad3)" stroke-width="3" stroke-linecap="round"></path>
	<path d="M 70 150 Q 55 145, 50 135 Q 45 125, 55 120" stroke="url(#grad3)" stroke-width="3" fill="none" stroke-linecap="round" data-fg-d3bl27="0.8:3.7754:/src/app/App.tsx:67:11:2773:196:e:path"></path>
	<path d="M 70 120 Q 60 110, 55 100 Q 50 90, 58 85" stroke="url(#grad3)" stroke-width="2.5" fill="none" stroke-linecap="round" data-fg-d3bl28="0.8:3.7754:/src/app/App.tsx:75:11:2991:196:e:path"></path>
	<path d="M 80 210 Q 60 205, 50 200 Q 40 195, 45 185" stroke="url(#grad3)" stroke-width="3.5" fill="none" stroke-linecap="round" data-fg-d3bl29="0.8:3.7754:/src/app/App.tsx:83:11:3209:198:e:path"></path>
	<path d="M 230 180 Q 250 170, 255 160 Q 260 150, 250 145" stroke="url(#grad3)" stroke-width="3" fill="none" stroke-linecap="round" data-fg-d3bl31="0.8:3.7754:/src/app/App.tsx:92:11:3490:201:e:path"></path>
	<path d="M 230 150 Q 245 145, 250 135 Q 255 125, 245 120" stroke="url(#grad3)" stroke-width="3" fill="none" stroke-linecap="round" data-fg-d3bl32="0.8:3.7754:/src/app/App.tsx:100:11:3713:201:e:path"></path>
	<path d="M 230 120 Q 240 110, 245 100 Q 250 90, 242 85" stroke="url(#grad3)" stroke-width="2.5" fill="none" stroke-linecap="round" data-fg-d3bl33="0.8:3.7754:/src/app/App.tsx:108:11:3936:201:e:path"></path>
	<path d="M 220 210 Q 240 205, 250 200 Q 260 195, 255 185" stroke="url(#grad3)" stroke-width="3.5" fill="none" stroke-linecap="round" data-fg-d3bl34="0.8:3.7754:/src/app/App.tsx:116:11:4159:203:e:path"></path>
	<ellipse cx="50" cy="145" rx="6" ry="10" fill="#22d3ee" opacity="0.8" transform="rotate(-30 50 145)" data-fg-d3bl36="0.8:3.7754:/src/app/App.tsx:125:11:4434:103:e:ellipse"></ellipse>
	<ellipse cx="55" cy="120" rx="5" ry="9" fill="#67e8f9" opacity="0.8" transform="rotate(-45 55 120)" data-fg-d3bl37="0.8:3.7754:/src/app/App.tsx:126:11:4548:102:e:ellipse"></ellipse>
	<ellipse cx="58" cy="85" rx="4" ry="7" fill="#06b6d4" opacity="0.8" transform="rotate(-20 58 85)" data-fg-d3bl38="0.8:3.7754:/src/app/App.tsx:127:11:4661:100:e:ellipse"></ellipse>
	<ellipse cx="45" cy="185" rx="7" ry="11" fill="#22d3ee" opacity="0.8" transform="rotate(-40 45 185)" data-fg-d3bl39="0.8:3.7754:/src/app/App.tsx:128:11:4772:103:e:ellipse"></ellipse>
	<ellipse cx="48" cy="165" rx="5" ry="8" fill="#67e8f9" opacity="0.8" transform="rotate(-25 48 165)" data-fg-d3bl40="0.8:3.7754:/src/app/App.tsx:129:11:4886:102:e:ellipse"></ellipse>
	<ellipse cx="250" cy="145" rx="6" ry="10" fill="#22d3ee" opacity="0.8" transform="rotate(30 250 145)" data-fg-d3bl42="0.8:3.7754:/src/app/App.tsx:132:11:5061:104:e:ellipse"></ellipse>
	<ellipse cx="245" cy="120" rx="5" ry="9" fill="#67e8f9" opacity="0.8" transform="rotate(45 245 120)" data-fg-d3bl43="0.8:3.7754:/src/app/App.tsx:133:11:5176:103:e:ellipse"></ellipse>
	<ellipse cx="242" cy="85" rx="4" ry="7" fill="#06b6d4" opacity="0.8" transform="rotate(20 242 85)" data-fg-d3bl44="0.8:3.7754:/src/app/App.tsx:134:11:5290:101:e:ellipse"></ellipse>
	<ellipse cx="255" cy="185" rx="7" ry="11" fill="#22d3ee" opacity="0.8" transform="rotate(40 255 185)" data-fg-d3bl45="0.8:3.7754:/src/app/App.tsx:135:11:5402:104:e:ellipse"></ellipse>
	<ellipse cx="252" cy="165" rx="5" ry="8" fill="#67e8f9" opacity="0.8" transform="rotate(25 252 165)" data-fg-d3bl46="0.8:3.7754:/src/app/App.tsx:136:11:5517:103:e:ellipse"></ellipse>
	<circle cx="50" cy="145" r="3" fill="#fbbf24" data-fg-d3bl48="0.8:3.7754:/src/app/App.tsx:139:11:5697:48:e:circle"></circle>
	<circle cx="55" cy="120" r="2.5" fill="#fcd34d" data-fg-d3bl49="0.8:3.7754:/src/app/App.tsx:140:11:5756:50:e:circle"></circle>
	<circle cx="45" cy="185" r="3.5" fill="#fbbf24" data-fg-d3bl50="0.8:3.7754:/src/app/App.tsx:141:11:5817:50:e:circle"></circle>
	<circle cx="58" cy="85" r="2" fill="#fcd34d" data-fg-d3bl51="0.8:3.7754:/src/app/App.tsx:142:11:5878:47:e:circle"></circle>
	<circle cx="250" cy="145" r="3" fill="#fbbf24" data-fg-d3bl52="0.8:3.7754:/src/app/App.tsx:144:11:5947:49:e:circle"></circle>
	<circle cx="245" cy="120" r="2.5" fill="#fcd34d" data-fg-d3bl53="0.8:3.7754:/src/app/App.tsx:145:11:6007:51:e:circle"></circle>
	<circle cx="255" cy="185" r="3.5" fill="#fbbf24" data-fg-d3bl54="0.8:3.7754:/src/app/App.tsx:146:11:6069:51:e:circle"></circle>
	<circle cx="242" cy="85" r="2" fill="#fcd34d" data-fg-d3bl55="0.8:3.7754:/src/app/App.tsx:147:11:6131:48:e:circle"></circle>
	<path d="M 150 90 Q 140 100, 135 115 Q 140 120, 150 125 Q 160 120, 165 115 Q 160 100, 150 90 Z" fill="url(#goldGrad)" data-fg-d3bl57="0.8:3.7754:/src/app/App.tsx:150:11:6245:154:e:path"></path>
	<rect x="145" y="125" width="10" height="35" fill="url(#grad3)" rx="2" data-fg-d3bl59="0.8:3.7754:/src/app/App.tsx:156:11:6460:73:e:rect"></rect>
	<path d="M 130 160 Q 115 155, 110 165 Q 105 175, 115 180" stroke="url(#grad3)" stroke-width="3" fill="none" stroke-linecap="round" data-fg-d3bl61="0.8:3.7754:/src/app/App.tsx:159:11:6600:201:e:path"></path>
	<path d="M 170 160 Q 185 155, 190 165 Q 195 175, 185 180" stroke="url(#grad3)" stroke-width="3" fill="none" stroke-linecap="round" data-fg-d3bl62="0.8:3.7754:/src/app/App.tsx:167:11:6823:201:e:path"></path>
	<path d="M 125 190 Q 110 190, 105 200 Q 100 210, 110 215" stroke="url(#grad3)" stroke-width="3" fill="none" stroke-linecap="round" data-fg-d3bl63="0.8:3.7754:/src/app/App.tsx:175:11:7046:201:e:path"></path>
	<path d="M 175 190 Q 190 190, 195 200 Q 200 210, 190 215" stroke="url(#grad3)" stroke-width="3" fill="none" stroke-linecap="round" data-fg-d3bl64="0.8:3.7754:/src/app/App.tsx:183:11:7269:201:e:path"></path>
	<ellipse cx="115" cy="180" rx="5" ry="8" fill="#67e8f9" opacity="0.9" transform="rotate(-30 115 180)" data-fg-d3bl66="0.8:3.7754:/src/app/App.tsx:192:11:7523:104:e:ellipse"></ellipse>
	<ellipse cx="185" cy="180" rx="5" ry="8" fill="#67e8f9" opacity="0.9" transform="rotate(30 185 180)" data-fg-d3bl67="0.8:3.7754:/src/app/App.tsx:193:11:7638:103:e:ellipse"></ellipse>
	<ellipse cx="110" cy="215" rx="6" ry="9" fill="#22d3ee" opacity="0.9" transform="rotate(-40 110 215)" data-fg-d3bl68="0.8:3.7754:/src/app/App.tsx:194:11:7752:104:e:ellipse"></ellipse>
	<ellipse cx="190" cy="215" rx="6" ry="9" fill="#22d3ee" opacity="0.9" transform="rotate(40 190 215)" data-fg-d3bl69="0.8:3.7754:/src/app/App.tsx:195:11:7867:103:e:ellipse"></ellipse>
	<circle cx="115" cy="180" r="3" fill="#fbbf24" data-fg-d3bl71="0.8:3.7754:/src/app/App.tsx:198:11:8047:49:e:circle"></circle>
	<circle cx="185" cy="180" r="3" fill="#fbbf24" data-fg-d3bl72="0.8:3.7754:/src/app/App.tsx:199:11:8107:49:e:circle"></circle>
	<circle cx="110" cy="215" r="3.5" fill="#fcd34d" data-fg-d3bl73="0.8:3.7754:/src/app/App.tsx:200:11:8167:51:e:circle"></circle>
	<circle cx="190" cy="215" r="3.5" fill="#fcd34d" data-fg-d3bl74="0.8:3.7754:/src/app/App.tsx:201:11:8229:51:e:circle"></circle>
	<circle cx="150" cy="195" r="18" stroke="url(#grad2)" stroke-width="3" fill="none" data-fg-d3bl76="0.8:3.7754:/src/app/App.tsx:204:11:8344:84:e:circle"></circle>
	<circle cx="150" cy="195" r="10" fill="url(#goldGrad)" opacity="0.7" data-fg-d3bl77="0.8:3.7754:/src/app/App.tsx:205:11:8439:71:e:circle"></circle>
	<path d="M 150 185 L 152 192 L 159 193 L 153 198 L 155 205 L 150 201 L 145 205 L 147 198 L 141 193 L 148 192 Z" fill="#1e3a5f" data-fg-d3bl79="0.8:3.7754:/src/app/App.tsx:208:11:8574:163:e:path"></path>
	<circle cx="135" cy="195" r="1.5" fill="#fcd34d" data-fg-d3bl81="0.8:3.7754:/src/app/App.tsx:214:11:8806:51:e:circle"></circle>
	<circle cx="165" cy="195" r="1.5" fill="#fcd34d" data-fg-d3bl82="0.8:3.7754:/src/app/App.tsx:215:11:8868:51:e:circle"></circle>
	<circle cx="150" cy="178" r="1.5" fill="#fcd34d" data-fg-d3bl83="0.8:3.7754:/src/app/App.tsx:216:11:8930:51:e:circle"></circle>
	<circle cx="150" cy="212" r="1.5" fill="#fcd34d" data-fg-d3bl84="0.8:3.7754:/src/app/App.tsx:217:11:8992:51:e:circle"></circle>
</svg>