<svg width="300" height="300" viewBox="0 0 300 300" fill="none" xmlns="http://www.w3.org/2000/svg" class="mx-auto"  >
	<defs >
		<linearGradient id="grad1" x1="0%" y1="0%" x2="100%" y2="100%" >
			<stop offset="0%"  style="stop-color: rgb(30, 58, 95); stop-opacity: 1;"></stop>
			<stop offset="50%"  style="stop-color: rgb(37, 99, 235); stop-opacity: 1;"></stop>
			<stop offset="100%"  style="stop-color: rgb(6, 182, 212); stop-opacity: 1;"></stop>
		</linearGradient>
		<linearGradient id="grad2" x1="0%" y1="0%" x2="100%" y2="100%" >
			<stop offset="0%"  style="stop-color: rgb(12, 74, 110); stop-opacity: 1;"></stop>
			<stop offset="50%"  style="stop-color: rgb(14, 165, 233); stop-opacity: 1;"></stop>
			<stop offset="100%"  style="stop-color: rgb(34, 211, 238); stop-opacity: 1;"></stop>
		</linearGradient>
		<linearGradient id="grad3" x1="50%" y1="0%" x2="50%" y2="100%" >
			<stop offset="0%"  style="stop-color: rgb(6, 182, 212); stop-opacity: 1;"></stop>
			<stop offset="70%"  style="stop-color: rgb(103, 232, 249); stop-opacity: 1;"></stop>
			<stop offset="100%"  style="stop-color: rgb(251, 191, 36); stop-opacity: 1;"></stop>
		</linearGradient>
		<linearGradient id="goldGrad" x1="0%" y1="0%" x2="100%" y2="0%" >
			<stop offset="0%"  style="stop-color: rgb(251, 191, 36); stop-opacity: 1;"></stop>
			<stop offset="50%"  style="stop-color: rgb(252, 211, 77); stop-opacity: 1;"></stop>
			<stop offset="100%"  style="stop-color: rgb(251, 191, 36); stop-opacity: 1;"></stop>
		</linearGradient>
	</defs>
	<path d="M 80 250 L 80 120 Q 80 50, 150 50 Q 220 50, 220 120 L 220 250" fill="none" stroke="url(#grad1)" stroke-width="8" stroke-linecap="round" ></path>
	<path d="M 95 245 L 95 125 Q 95 70, 150 70 Q 205 70, 205 125 L 205 245" fill="none" stroke="url(#grad2)" stroke-width="5" stroke-linecap="round" ></path>
	<path d="M 150 95 Q 150 95, 145 110 Q 145 110, 150 120 Q 155 110, 155 110 Q 150 95, 150 95 Z" fill="url(#goldGrad)" ></path>
	<rect x="147" y="120" width="6" height="25" fill="url(#grad3)" rx="1" ></rect>
	<path d="M 120 140 Q 110 135, 105 145 Q 100 155, 105 160" stroke="url(#grad3)" stroke-width="2" fill="none" stroke-linecap="round" ></path>
	<path d="M 115 165 Q 105 165, 100 175 Q 95 185, 100 195" stroke="url(#grad3)" stroke-width="2" fill="none" stroke-linecap="round" ></path>
	<path d="M 180 140 Q 190 135, 195 145 Q 200 155, 195 160" stroke="url(#grad3)" stroke-width="2" fill="none" stroke-linecap="round" ></path>
	<path d="M 185 165 Q 195 165, 200 175 Q 205 185, 200 195" stroke="url(#grad3)" stroke-width="2" fill="none" stroke-linecap="round" ></path>
	<circle cx="105" cy="160" r="3" fill="#fbbf24" ></circle>
	<circle cx="100" cy="195" r="3" fill="#fbbf24" ></circle>
	<circle cx="195" cy="160" r="3" fill="#fbbf24" ></circle>
	<circle cx="200" cy="195" r="3" fill="#fbbf24" ></circle>
	<circle cx="150" cy="180" r="15" stroke="url(#grad2)" stroke-width="2" fill="none" ></circle>
	<circle cx="150" cy="180" r="8" fill="url(#goldGrad)" opacity="0.6" ></circle>
	<path d="M 150 172 L 152 178 L 158 178 L 153 182 L 155 188 L 150 184 L 145 188 L 147 182 L 142 178 L 148 178 Z" fill="#1e3a5f" ></path>
	<rect x="78" y="235" width="8" height="20" fill="url(#grad1)" opacity="0.7" ></rect>
	<rect x="214" y="235" width="8" height="20" fill="url(#grad1)" opacity="0.7" ></rect>
	<circle cx="82" cy="235" r="4" fill="#fbbf24" ></circle>
	<circle cx="218" cy="235" r="4" fill="#fbbf24" ></circle>
</svg>