<svg width="300" height="300" viewBox="0 0 300 300" fill="none" xmlns="http://www.w3.org/2000/svg" class="mx-auto">
	<defs>
		<linearGradient id="grad1" x1="0%" y1="0%" x2="100%" y2="100%">
			<stop offset="0%" style="stop-color: rgb(30, 58, 95); stop-opacity: 1;"></stop>
			<stop offset="50%" style="stop-color: rgb(37, 99, 235); stop-opacity: 1;"></stop>
			<stop offset="100%" style="stop-color: rgb(6, 182, 212); stop-opacity: 1;"></stop>
		</linearGradient>
		<linearGradient id="grad2" x1="0%" y1="0%" x2="100%" y2="100%">
			<stop offset="0%" style="stop-color: rgb(12, 74, 110); stop-opacity: 1;"></stop>
			<stop offset="50%" style="stop-color: rgb(14, 165, 233); stop-opacity: 1;"></stop>
			<stop offset="100%" style="stop-color: rgb(34, 211, 238); stop-opacity: 1;"></stop>
		</linearGradient>
		<linearGradient id="goldGrad" x1="0%" y1="0%" x2="100%" y2="0%">
			<stop offset="0%" style="stop-color: rgb(251, 191, 36); stop-opacity: 1;"></stop>
			<stop offset="50%" style="stop-color: rgb(252, 211, 77); stop-opacity: 1;"></stop>
			<stop offset="100%" style="stop-color: rgb(251, 191, 36); stop-opacity: 1;"></stop>
		</linearGradient>
	</defs>

	<path d="M 80 250 L 80 120 Q 80 50, 150 50 Q 220 50, 220 120 L 220 250" fill="none" stroke="url(#grad1)" stroke-width="8" stroke-linecap="round"></path>
	<path d="M 95 245 L 95 125 Q 95 70, 150 70 Q 205 70, 205 125 L 205 245" fill="none" stroke="url(#grad2)" stroke-width="5" stroke-linecap="round"></path>

	<path d="M 150 140 L 105 160 M 150 160 L 100 195 M 150 140 L 195 160 M 150 160 L 200 195" stroke="#67e8f9" stroke-width="1.5" stroke-dasharray="4 2" opacity="0.6"></path>

	<g transform="translate(150, 150) rotate(-15)">
		<path d="M 0 -25 L 22 15 L -22 15 Z" fill="url(#grad1)" stroke="url(#grad2)" stroke-width="2"></path>
		<circle cx="-22" cy="15" r="3" fill="#fbbf24"></circle> <circle cx="22" cy="15" r="3" fill="#fbbf24"></circle>  <circle cx="0" cy="-25" r="4" fill="#fbbf24"></circle>  </g>

	<circle cx="105" cy="160" r="3" fill="#fbbf24"></circle>
	<circle cx="100" cy="195" r="3" fill="#fbbf24"></circle>
	<circle cx="195" cy="160" r="3" fill="#fbbf24"></circle>
	<circle cx="200" cy="195" r="3" fill="#fbbf24"></circle>

	<circle cx="82" cy="245" r="5" fill="#fbbf24"></circle>
	<circle cx="218" cy="245" r="5" fill="#fbbf24"></circle>
</svg>